<svg width="97" height="17" fill="none" xmlns="http://www.w3.org/2000/svg"><path d="M4.906 16.456c-1.29 0-2.347-.279-3.168-.836-.821-.572-1.4-1.298-1.738-2.178l2.156-.946c.264.587.63 1.034 1.1 1.342a3.007 3.007 0 0 0 1.65.462c.601 0 1.107-.103 1.518-.308.41-.22.616-.543.616-.968 0-.41-.176-.733-.528-.968-.352-.235-.895-.44-1.628-.616l-1.342-.33c-.895-.22-1.635-.609-2.222-1.166C.733 9.387.44 8.683.44 7.832c0-.66.19-1.24.572-1.738.396-.499.924-.88 1.584-1.144a5.486 5.486 0 0 1 2.156-.418c1.041 0 1.958.213 2.75.638.792.41 1.364 1.012 1.716 1.804l-2.112.924C6.681 7.033 5.903 6.6 4.774 6.6c-.543 0-.997.11-1.364.33-.367.22-.55.506-.55.858 0 .337.14.616.418.836.279.205.69.381 1.232.528l1.65.418c1.1.279 1.929.704 2.486 1.276.572.557.858 1.247.858 2.068 0 .704-.205 1.327-.616 1.87-.396.528-.946.939-1.65 1.232-.704.293-1.481.44-2.332.44ZM11.6.352h2.42v15.752H11.6V.352ZM18.249 3.256c-.455 0-.843-.154-1.166-.462a1.628 1.628 0 0 1-.462-1.166c0-.455.154-.836.462-1.144A1.59 1.59 0 0 1 18.249 0c.454 0 .836.161 1.144.484.322.308.484.69.484 1.144 0 .455-.162.843-.484 1.166-.308.308-.69.462-1.144.462Zm-1.21 1.628h2.42v11.22h-2.42V4.884ZM27.159 16.456c-1.012 0-1.929-.257-2.75-.77a5.551 5.551 0 0 1-1.958-2.112c-.47-.91-.704-1.936-.704-3.08 0-1.144.235-2.163.704-3.058.484-.91 1.136-1.62 1.958-2.134.821-.513 1.738-.77 2.75-.77.792 0 1.503.176 2.134.528.63.352 1.107.785 1.43 1.298h.11l-.11-1.584V.352h2.42v15.752h-2.31v-1.452h-.11c-.323.499-.8.924-1.43 1.276-.63.352-1.342.528-2.134.528Zm.352-2.222a3.04 3.04 0 0 0 1.628-.462 3.35 3.35 0 0 0 1.232-1.32c.308-.572.462-1.225.462-1.958 0-.733-.154-1.379-.462-1.936a3.35 3.35 0 0 0-1.232-1.32 3.04 3.04 0 0 0-1.628-.462c-.587 0-1.137.154-1.65.462a3.351 3.351 0 0 0-1.232 1.32c-.308.557-.462 1.203-.462 1.936 0 .733.154 1.386.462 1.958a3.351 3.351 0 0 0 1.232 1.32 3.153 3.153 0 0 0 1.65.462ZM40.981 16.456c-1.1 0-2.09-.257-2.97-.77a5.55 5.55 0 0 1-2.046-2.112c-.484-.91-.726-1.929-.726-3.058 0-1.07.235-2.06.704-2.97a5.686 5.686 0 0 1 2.002-2.2c.85-.543 1.819-.814 2.904-.814 1.13 0 2.105.25 2.926.748a4.806 4.806 0 0 1 1.892 2.046c.44.865.66 1.84.66 2.926 0 .205-.022.462-.066.77h-8.602c.088 1.041.455 1.848 1.1 2.42.66.557 1.423.836 2.288.836.69 0 1.283-.154 1.782-.462a3.61 3.61 0 0 0 1.232-1.298l2.046.968c-.528.924-1.217 1.65-2.068 2.178-.85.528-1.87.792-3.058.792Zm2.882-7.282a2.72 2.72 0 0 0-.374-1.166c-.22-.396-.557-.726-1.012-.99-.44-.264-.983-.396-1.628-.396-.777 0-1.437.235-1.98.704-.528.455-.895 1.07-1.1 1.848h6.094ZM52.73 16.456c-1.29 0-2.346-.279-3.168-.836-.821-.572-1.4-1.298-1.738-2.178l2.156-.946c.264.587.63 1.034 1.1 1.342a3.007 3.007 0 0 0 1.65.462c.602 0 1.108-.103 1.518-.308.41-.22.616-.543.616-.968 0-.41-.176-.733-.528-.968-.352-.235-.894-.44-1.628-.616l-1.342-.33c-.895-.22-1.635-.609-2.222-1.166-.586-.557-.88-1.261-.88-2.112 0-.66.19-1.24.572-1.738.396-.499.924-.88 1.584-1.144a5.486 5.486 0 0 1 2.156-.418c1.041 0 1.958.213 2.75.638.792.41 1.364 1.012 1.716 1.804l-2.112.924c-.425-.865-1.202-1.298-2.332-1.298-.542 0-.997.11-1.364.33-.366.22-.55.506-.55.858 0 .337.14.616.418.836.279.205.69.381 1.232.528l1.65.418c1.1.279 1.929.704 2.486 1.276.572.557.858 1.247.858 2.068 0 .704-.205 1.327-.616 1.87-.396.528-.946.939-1.65 1.232-.704.293-1.481.44-2.332.44ZM59.423.352h2.42v4.29l-.11 1.716h.11c.323-.528.8-.96 1.43-1.298a4.253 4.253 0 0 1 2.068-.528c1.364 0 2.406.403 3.124 1.21.719.792 1.078 1.877 1.078 3.256v7.106h-2.42V9.328c0-.85-.227-1.489-.682-1.914-.44-.425-1.019-.638-1.738-.638-.542 0-1.034.154-1.474.462a3.229 3.229 0 0 0-1.012 1.232 3.54 3.54 0 0 0-.374 1.606v6.028h-2.42V.352ZM76.385 16.456c-1.365 0-2.406-.403-3.125-1.21-.704-.821-1.056-1.958-1.056-3.41V4.884h2.42v6.622c0 .91.213 1.591.639 2.046.44.455 1.011.682 1.715.682.573 0 1.079-.147 1.519-.44.44-.308.777-.711 1.011-1.21a3.724 3.724 0 0 0 .353-1.606V4.884h2.42v11.22h-2.288v-1.452h-.132c-.309.528-.785.96-1.43 1.298a4.356 4.356 0 0 1-2.046.506ZM91.081 16.456c-.792 0-1.503-.176-2.134-.528-.63-.352-1.107-.777-1.43-1.276h-.11v1.452h-2.31V.352h2.42v4.422l-.11 1.584h.11c.323-.513.8-.946 1.43-1.298.63-.352 1.342-.528 2.134-.528 1.012 0 1.929.257 2.75.77.822.513 1.467 1.225 1.936 2.134.484.895.726 1.914.726 3.058s-.242 2.17-.726 3.08a5.387 5.387 0 0 1-1.936 2.112c-.821.513-1.738.77-2.75.77Zm-.352-2.222c.587 0 1.137-.154 1.65-.462a3.351 3.351 0 0 0 1.232-1.32c.308-.572.462-1.225.462-1.958 0-.733-.154-1.379-.462-1.936a3.351 3.351 0 0 0-1.232-1.32 3.152 3.152 0 0 0-1.65-.462c-.587 0-1.136.154-1.65.462-.498.308-.902.748-1.21 1.32-.308.557-.462 1.203-.462 1.936 0 .733.154 1.386.462 1.958.308.572.712 1.012 1.21 1.32a3.152 3.152 0 0 0 1.65.462Z" fill="#1E293B"/></svg>