<svg width="30" height="28" fill="none" xmlns="http://www.w3.org/2000/svg"><path fill-rule="evenodd" clip-rule="evenodd" d="M2.4.4a1.8 1.8 0 1 0 0 3.6v14.4A3.6 3.6 0 0 0 6 22h4.654l-2.327 2.327a1.8 1.8 0 0 0 2.546 2.546L15 22.746l4.127 4.127a1.8 1.8 0 0 0 2.546-2.546L19.346 22H24a3.6 3.6 0 0 0 3.6-3.6V4a1.8 1.8 0 0 0 0-3.6H2.4Zm21.073 8.473a1.8 1.8 0 0 0-2.546-2.546L15 12.254l-2.327-2.327a1.8 1.8 0 0 0-2.546 0l-3.6 3.6a1.8 1.8 0 0 0 2.546 2.546l2.327-2.327 2.327 2.327a1.8 1.8 0 0 0 2.546 0l7.2-7.2Z" fill="#EC4899"/></svg>